<svg xmlns="http://www.w3.org/2000/svg" viewBox="0 0 128 128" role="img" aria-label="Koffy default avatar">
  <defs>
    <linearGradient id="bg" x1="20" y1="14" x2="106" y2="116" gradientUnits="userSpaceOnUse">
      <stop offset="0" stop-color="#00d6a3"/>
      <stop offset="1" stop-color="#1b74e4"/>
    </linearGradient>
    <linearGradient id="shine" x1="28" y1="20" x2="96" y2="104" gradientUnits="userSpaceOnUse">
      <stop offset="0" stop-color="#ffffff" stop-opacity=".38"/>
      <stop offset=".7" stop-color="#ffffff" stop-opacity="0"/>
    </linearGradient>
    <filter id="shadow" x="-20%" y="-20%" width="140%" height="140%">
      <feDropShadow dx="0" dy="8" stdDeviation="8" flood-color="#0f2a43" flood-opacity=".22"/>
    </filter>
  </defs>
  <rect width="128" height="128" rx="34" fill="#eef6ff"/>
  <circle cx="64" cy="64" r="48" fill="url(#bg)" filter="url(#shadow)"/>
  <circle cx="46" cy="36" r="34" fill="url(#shine)"/>
  <path d="M42 36c0-4 3-7 7-7s7 3 7 7v20l24-24c3-3 7-3 10 0s3 7 0 10L72 60l22 26c3 3 2 8-1 10s-8 2-10-1L62 70l-6 6v13c0 4-3 7-7 7s-7-3-7-7V36z" fill="#fff"/>
  <path d="M83 86c5 0 9 4 9 9s-4 9-9 9-9-4-9-9 4-9 9-9z" fill="#10b981"/>
</svg>
